<?xml version="1.0" ?><!DOCTYPE svg  PUBLIC '-//W3C//DTD SVG 1.1//EN'  'http://www.w3.org/Graphics/SVG/1.1/DTD/svg11.dtd'><svg height="43.3492mm" style="shape-rendering:geometricPrecision; text-rendering:geometricPrecision; image-rendering:optimizeQuality; fill-rule:evenodd; clip-rule:evenodd" version="1.1" viewBox="0 0 378 378" width="43.3492mm" xml:space="preserve" xmlns="http://www.w3.org/2000/svg" xmlns:xlink="http://www.w3.org/1999/xlink"><defs><style type="text/css">
   <![CDATA[
    .fil2 {fill:none}
    .fil3 {fill:#2FA700}
    .fil0 {fill:#3ACE00}
    .fil1 {fill:white}
   ]]>
  </style></defs><g id="Layer_x0020_1"><g id="_444245696"><rect class="fil0" height="378" rx="41" ry="41" width="378"/><path class="fil1" d="M175 76c-64,7 -135,59 -108,130 25,67 104,70 110,75 11,8 -10,40 15,31 44,-17 123,-80 125,-132 2,-66 -72,-112 -142,-104zm-56 80l0 42 22 0c2,0 3,0 4,1 1,1 1,2 1,4 0,1 0,2 -1,3 -1,1 -2,1 -4,1l-27 0c-2,0 -4,0 -5,-1 -1,-1 -1,-3 -1,-6l0 -44c0,-2 0,-4 1,-5 1,-1 2,-2 4,-2 2,0 3,1 4,2 1,1 2,3 2,5zm35 45l0 -45c0,-2 1,-4 2,-5 1,-1 2,-2 4,-2 1,0 2,1 4,2 1,1 1,3 1,5l0 45c0,3 0,4 -1,6 -2,1 -3,1 -4,1 -2,0 -3,0 -4,-1 -1,-2 -2,-3 -2,-6zm38 -45l21 34 0 -34c0,-2 0,-4 1,-5 1,-1 2,-2 4,-2 1,0 3,1 3,2 1,1 2,3 2,5l0 45c0,5 -2,7 -6,7 -1,0 -2,0 -3,0 0,0 -1,-1 -2,-2 -1,0 -1,-1 -2,-2 0,-1 -1,-2 -2,-2l-20 -34 0 34c0,2 -1,4 -2,5 -1,1 -2,1 -3,1 -2,0 -3,0 -4,-1 -1,-1 -2,-3 -2,-5l0 -44c0,-2 1,-4 1,-5 1,-1 1,-2 2,-3 1,0 3,-1 4,-1 1,0 2,0 2,1 1,0 2,0 2,1 1,1 1,1 2,2 0,1 1,2 2,3zm79 3l-25 0 0 14 23 0c1,0 3,1 3,1 1,1 2,2 2,3 0,2 -1,3 -2,4 0,0 -2,1 -3,1l-23 0 0 16 25 0c2,0 4,1 4,1 1,1 2,2 2,4 0,1 -1,2 -2,3 0,1 -2,1 -4,1l-29 0c-3,0 -4,0 -6,-1 -1,-1 -1,-3 -1,-6l0 -43c0,-1 0,-3 1,-4 0,-1 1,-2 2,-2 1,-1 2,-1 4,-1l29 0c1,0 3,1 4,1 0,1 1,2 1,4 0,1 -1,2 -1,3 -1,1 -3,1 -4,1z"/><line class="fil2" x1="291" x2="378" y1="116" y2="241"/><path class="fil3" d="M378 241l-70 -100c6,12 9,25 9,39 -2,52 -81,115 -125,132 -5,2 -8,2 -10,1l65 65 90 0 41 -41 0 -96z"/><path class="fil3" d="M213 190l-21 -34 -2 -3 -2 -2c0,-1 -1,-1 -2,-1 0,-1 -1,-1 -2,-1 -1,0 -3,1 -4,1 -1,1 -1,2 -2,3 0,1 -1,3 -1,5l0 44c0,2 1,4 2,5 1,1 2,1 4,1 1,0 2,0 3,-1 1,-1 2,-3 2,-5l0 -34 20 34 2 2 2 2c1,1 2,2 2,2 1,0 2,0 3,0 4,0 6,-2 6,-7l0 -45c0,-2 -1,-4 -2,-5 0,-1 -2,-2 -3,-2 -2,0 -3,1 -4,2 -1,1 -1,3 -1,5l0 34z"/><path class="fil3" d="M165 201l0 -45c0,-2 0,-4 -1,-5 -2,-1 -3,-2 -4,-2 -2,0 -3,1 -4,2 -1,1 -2,3 -2,5l0 45c0,3 1,4 2,6 1,1 2,1 4,1 1,0 2,0 4,-1 1,-2 1,-3 1,-6z"/><path class="fil3" d="M119 198l0 -42c0,-2 -1,-4 -2,-5 -1,-1 -2,-2 -4,-2 -2,0 -3,1 -4,2 -1,1 -1,3 -1,5l0 44c0,3 0,5 1,6 1,1 3,1 5,1l27 0c2,0 3,0 4,-1 1,-1 1,-2 1,-3 0,-2 0,-3 -1,-4 -1,-1 -2,-1 -4,-1l-22 0z"/><path class="fil3" d="M235 157l0 43c0,3 0,5 1,6 2,1 3,1 6,1l29 0c2,0 4,0 4,-1 1,-1 2,-2 2,-3 0,-2 -1,-3 -2,-4 0,0 -2,-1 -4,-1l-25 0 0 -16 23 0c1,0 3,-1 3,-1 1,-1 2,-2 2,-4 0,-1 -1,-2 -2,-3 0,0 -2,-1 -3,-1l-23 0 0 -14 25 0c1,0 3,0 4,-1 0,-1 1,-2 1,-3 0,-2 -1,-3 -1,-4 -1,0 -3,-1 -4,-1l-29 0c-2,0 -3,0 -4,1 -1,0 -2,1 -2,2 -1,1 -1,3 -1,4z"/><path class="fil3" d="M152 274l27 28c1,-8 3,-17 -2,-21 -2,-2 -12,-3 -25,-7z"/></g></g></svg>